<svg width="123" height="32" viewBox="0 0 123 32" fill="none" xmlns="http://www.w3.org/2000/svg">
<path d="M23.4334 31.9998C32.0946 32.0417 40 24.8671 40 16.139C40 6.59425 32.0946 -0.00317344 23.4334 1.14517e-06H15.9794C7.21442 -0.00317344 0 6.59622 0 16.139C0 24.869 7.21442 32.0417 15.9794 31.9998H23.4334Z" fill="white" fill-opacity="0.5"/>
<path d="M16.4988 1C8.49091 1.00251 2.00189 7.49186 2 15.501C2.00189 23.5088 8.49085 29.9975 16.4988 30C24.5085 29.9975 30.9989 23.5088 31 15.501C30.9988 7.49186 24.5085 1.00251 16.4988 1ZM7.3084 15.501C7.31595 11.5873 9.7608 8.24991 13.2084 6.92369V24.0763C9.7608 22.7508 7.31588 19.4153 7.3084 15.501ZM19.7879 24.0801V6.92312C23.2367 8.24613 25.6854 11.5854 25.6917 15.501C25.6854 19.4178 23.2367 22.7546 19.7879 24.0801Z" fill="white"/>
<path d="M45.3394 6.82378C45.3394 5.31742 44.5532 5.41661 43.7994 5.40025V4.96491C44.4527 4.99714 45.1224 4.99714 45.777 4.99714C46.4808 4.99714 47.4364 4.96491 48.6771 4.96491C53.0165 4.96491 55.3798 7.86126 55.3798 10.8271C55.3798 12.4856 54.4085 16.6551 48.4753 16.6551C47.621 16.6551 46.8324 16.6222 46.0451 16.6222C45.2912 16.6222 44.5532 16.6387 43.7994 16.6551V16.2204C44.8043 16.1193 45.2912 16.0859 45.3393 14.9466V6.82378H45.3394ZM46.9823 14.6794C46.9823 15.969 47.905 16.1193 48.7258 16.1193C52.3469 16.1193 53.5358 13.3892 53.5358 10.8934C53.5358 7.76263 51.5241 5.50191 48.2902 5.50191C47.6021 5.50191 47.2859 5.5512 46.9824 5.56895L46.9823 14.6794ZM55.9679 16.2205H56.2853C56.7539 16.2205 57.0898 16.2205 57.0898 15.6663V11.1285C57.0898 10.3925 56.8387 10.2901 56.2184 9.95707V9.68854C57.0057 9.45224 57.9455 9.13632 58.0112 9.08577C58.1295 9.01879 58.2294 9.0011 58.3135 9.0011C58.3964 9.0011 58.4311 9.1022 58.4311 9.23678V15.6663C58.4311 16.2205 58.7998 16.2205 59.269 16.2205H59.5536V16.6558C58.9831 16.6558 58.3963 16.6224 57.7943 16.6224C57.191 16.6224 56.5871 16.6388 55.9679 16.6558V16.2205H55.9679ZM57.7607 6.4225C57.3244 6.4225 56.9399 6.02072 56.9399 5.58532C56.9399 5.16577 57.3421 4.77972 57.7607 4.77972C58.1952 4.77972 58.5822 5.13298 58.5822 5.58532C58.5822 6.03771 58.2123 6.4225 57.7607 6.4225ZM61.1458 11.2283C61.1458 10.6091 60.9605 10.4423 60.1745 10.1239V9.80613C60.8948 9.57172 61.581 9.35373 62.3859 9.00117C62.4359 9.00117 62.4852 9.03529 62.4852 9.1686V10.2578C63.442 9.57172 64.2635 9.0011 65.3878 9.0011C66.8107 9.0011 67.3134 10.0398 67.3134 11.3458V15.6664C67.3134 16.2205 67.6821 16.2205 68.1519 16.2205H68.4537V16.6558C67.8655 16.6558 67.2793 16.6224 66.6773 16.6224C66.0733 16.6224 65.4693 16.6388 64.8667 16.6558V16.2205H65.1677C65.6381 16.2205 65.9715 16.2205 65.9715 15.6664V11.33C65.9715 10.374 65.3878 9.90583 64.431 9.90583C63.8954 9.90583 63.0403 10.3412 62.4851 10.7102V15.6662C62.4851 16.2204 62.8556 16.2204 63.3256 16.2204H63.6266V16.6558C63.0403 16.6558 62.4528 16.6223 61.8496 16.6223C61.2469 16.6223 60.6424 16.6388 60.0396 16.6558V16.2204H60.3419C60.8112 16.2204 61.1457 16.2204 61.1457 15.6662V11.2283H61.1458ZM69.7279 12.0332C69.6931 12.1843 69.6931 12.4351 69.7279 13.005C69.8266 14.5953 70.8517 15.9014 72.1904 15.9014C73.113 15.9014 73.8352 15.3991 74.4544 14.7799L74.6883 15.0149C73.9169 16.036 72.9618 16.9066 71.5884 16.9066C68.9228 16.9066 68.3865 14.3268 68.3865 13.2559C68.3865 9.97281 70.5986 9.00104 71.771 9.00104C73.1294 9.00104 74.5884 9.85472 74.6042 11.6301C74.6042 11.7318 74.6042 11.831 74.5884 11.9328L74.4366 12.0332H69.7279ZM72.6951 11.4969C73.113 11.4969 73.1625 11.2789 73.1625 11.0786C73.1625 10.2243 72.6432 9.53747 71.7041 9.53747C70.6828 9.53747 69.9789 10.29 69.7778 11.4969H72.6951ZM74.9901 16.2205H75.4429C75.9107 16.2205 76.246 16.2205 76.246 15.6663V10.961C76.246 10.4423 75.6269 10.3412 75.3746 10.2072V9.95701C76.5983 9.43701 77.2692 9.00104 77.4216 9.00104C77.5209 9.00104 77.5702 9.05159 77.5702 9.21966V10.7266H77.6057C78.0236 10.0739 78.7288 9.00104 79.7501 9.00104C80.1693 9.00104 80.705 9.28537 80.705 9.88877C80.705 10.3412 80.3875 10.7443 79.9184 10.7443C79.3967 10.7443 79.3967 10.3412 78.8111 10.3412C78.5259 10.3412 77.588 10.7266 77.588 11.7318V15.6663C77.588 16.2204 77.9225 16.2204 78.3924 16.2204H79.3302V16.6558C78.4082 16.6387 77.7068 16.6223 76.9847 16.6223C76.2979 16.6223 75.5934 16.6388 74.9902 16.6558V16.2205H74.9901ZM81.4429 14.3268C81.6612 15.4325 82.3309 16.3709 83.5551 16.3709C84.5417 16.3709 84.9109 15.7681 84.9109 15.1818C84.9109 13.2054 81.2582 13.8416 81.2582 11.1456C81.2582 10.2073 82.0132 9.0011 83.8561 9.0011C84.3918 9.0011 85.1119 9.15274 85.7652 9.48825L85.8842 11.1949H85.4978C85.3308 10.1409 84.7446 9.5376 83.6708 9.5376C83.0005 9.5376 82.3643 9.92308 82.3643 10.6427C82.3643 12.6039 86.2522 11.9992 86.2522 14.6283C86.2522 15.7334 85.3636 16.9067 83.3691 16.9067C82.6988 16.9067 81.9114 16.6723 81.3253 16.3381L81.1406 14.4117L81.4429 14.3268ZM101.386 7.99641H100.968C100.649 6.03771 99.2581 5.24981 97.3818 5.24981C95.453 5.24981 92.654 6.5387 92.654 10.5579C92.654 13.9433 95.069 16.3707 97.6493 16.3707C99.308 16.3707 100.683 15.2322 101.019 13.4732L101.403 13.573L101.019 16.0182C100.315 16.4548 98.4207 16.9066 97.3134 16.9066C93.3926 16.9066 90.9129 14.3774 90.9129 10.6091C90.9129 7.17566 93.9794 4.71275 97.264 4.71275C98.6212 4.71275 99.9283 5.14998 101.219 5.60238L101.386 7.99641ZM101.991 16.2205H102.308C102.778 16.2205 103.114 16.2205 103.114 15.6663V6.33916C103.114 5.24987 102.863 5.21632 102.225 5.03246V4.76456C102.896 4.54727 103.599 4.24518 103.952 4.04369C104.134 3.94386 104.27 3.85913 104.319 3.85913C104.422 3.85913 104.455 3.96029 104.455 4.09481V15.6663C104.455 16.2205 104.823 16.2205 105.293 16.2205H105.576V16.6558C105.008 16.6558 104.422 16.6223 103.818 16.6223C103.215 16.6223 102.612 16.6388 101.991 16.6558V16.2205H101.991ZM112.752 15.7333C112.752 16.036 112.935 16.0524 113.22 16.0524C113.421 16.0524 113.672 16.036 113.891 16.036V16.3886C113.169 16.4549 111.795 16.8068 111.476 16.9067L111.392 16.8561V15.5008C110.388 16.3209 109.616 16.9067 108.425 16.9067C107.52 16.9067 106.582 16.3209 106.582 14.9151V10.6261C106.582 10.1908 106.515 9.77182 105.578 9.68848V9.37003C106.182 9.35361 107.52 9.25308 107.739 9.25308C107.925 9.25308 107.925 9.37003 107.925 9.7384V14.0582C107.925 14.5619 107.925 16.0018 109.382 16.0018C109.952 16.0018 110.705 15.5664 111.409 14.982V10.4744C111.409 10.1408 110.605 9.95695 110.003 9.78882V9.48743C111.509 9.38633 112.45 9.25302 112.616 9.25302C112.752 9.25302 112.752 9.36991 112.752 9.55504V15.7333H112.752ZM116.087 10.2073C116.756 9.63793 117.661 9.0011 118.584 9.0011C120.528 9.0011 121.7 10.6944 121.7 12.5185C121.7 14.7123 120.092 16.9066 117.694 16.9066C116.455 16.9066 115.801 16.5041 115.365 16.3208L114.863 16.705L114.512 16.5218C114.661 15.5336 114.746 14.5619 114.746 13.5408V6.3391C114.746 5.24987 114.493 5.21632 113.857 5.03246V4.76456C114.529 4.54727 115.231 4.24518 115.583 4.04363C115.768 3.9438 115.901 3.85913 115.953 3.85913C116.053 3.85913 116.086 3.96029 116.086 4.09481V10.2072H116.087V10.2073ZM116.087 14.7622C116.087 15.3991 116.689 16.472 117.812 16.472C119.606 16.472 120.36 14.7123 120.36 13.2212C120.36 11.4129 118.987 9.90596 117.679 9.90596C117.057 9.90596 116.539 10.3084 116.087 10.6944V14.7622H116.087ZM43.7803 26.393H43.9086C44.2362 26.393 44.5828 26.3489 44.5828 25.8743V21.1001C44.5828 20.6249 44.2362 20.5801 43.9086 20.5801H43.7803V20.3065C44.1363 20.3065 44.6833 20.3426 45.1317 20.3426C45.587 20.3426 46.1334 20.3065 46.5622 20.3065V20.5801H46.4338C46.1068 20.5801 45.7597 20.625 45.7597 21.1001V25.8743C45.7597 26.3489 46.1068 26.393 46.4338 26.393H46.5622V26.668C46.1245 26.668 45.5763 26.6319 45.1216 26.6319C44.6745 26.6319 44.1363 26.668 43.7803 26.668V26.393Z" fill="white"/>
<path d="M46.5622 26.7065C46.1215 26.7065 45.5751 26.6699 45.121 26.6699C44.6752 26.6699 44.139 26.7065 43.7804 26.7065H43.7412V26.3539H43.9082C44.2388 26.3464 44.5399 26.3198 44.5431 25.8744V21.1001C44.5399 20.6547 44.2389 20.6249 43.9082 20.6187H43.7412V20.2661H43.7804C44.139 20.2661 44.6854 20.3021 45.1311 20.3021C45.5852 20.3021 46.131 20.2661 46.5622 20.2661H46.6028V20.6187H46.4345C46.1038 20.625 45.8008 20.6547 45.7989 21.1001V25.8744C45.8008 26.3198 46.1037 26.3464 46.4345 26.3539H46.6027V26.7065H46.5622ZM46.523 26.6287V26.4341H46.4346C46.1089 26.4341 45.7212 26.3779 45.7193 25.8744V21.1001C45.7212 20.5966 46.1088 20.5397 46.4346 20.5397H46.523V20.3464C46.1019 20.3464 45.5738 20.3817 45.1311 20.3817C44.698 20.3817 44.1737 20.3489 43.8208 20.3464V20.5397H43.9081C44.2331 20.5397 44.6221 20.5966 44.6221 21.1001V25.8744C44.6221 26.378 44.2331 26.4341 43.9081 26.4341H43.8208V26.6287C44.1737 26.6249 44.689 26.5921 45.121 26.5921C45.565 26.5921 46.093 26.6262 46.523 26.6287V26.6287ZM52.8273 24.8716L52.8456 24.8539V21.4369C52.8456 20.6888 52.3252 20.5801 52.052 20.5801H51.8508V20.3065C52.2802 20.3065 52.6995 20.3425 53.1276 20.3425C53.5013 20.3425 53.877 20.3065 54.2501 20.3065V20.5801H54.1135C53.7297 20.5801 53.3009 20.6527 53.3009 21.737V25.8844C53.3009 26.2029 53.3103 26.5213 53.3552 26.8038H53.0081L48.3126 21.5728V25.3278C48.3126 26.1208 48.4663 26.3931 49.1695 26.3931H49.3238V26.668C48.9324 26.668 48.5409 26.632 48.1481 26.632C47.739 26.632 47.3191 26.668 46.9081 26.668V26.3931H47.0358C47.6651 26.3931 47.8561 25.9659 47.8561 25.2375V21.3991C47.8561 20.8892 47.4356 20.5802 47.027 20.5802H46.9082V20.3066C47.2546 20.3066 47.6101 20.3426 47.956 20.3426C48.2298 20.3426 48.4948 20.3066 48.7679 20.3066L52.8273 24.8716Z" fill="white"/>
<path d="M53.355 26.8435L52.9788 26.8295L48.3509 21.6757V25.3277C48.3616 26.1201 48.4824 26.3451 49.1692 26.3538H49.3646V26.7064H49.3241C48.9295 26.7064 48.5368 26.6698 48.1478 26.6698C47.7393 26.6698 47.3207 26.7064 46.9071 26.7064H46.8672V26.3538H47.0355C47.6381 26.3507 47.8101 25.964 47.8171 25.2374V21.3996C47.8158 20.9143 47.4174 20.6199 47.0266 20.6186H46.8672V20.2673H46.907C47.2555 20.2673 47.6128 20.3021 47.9549 20.3021C48.2262 20.3021 48.4906 20.2673 48.7979 20.2806L52.806 24.7888V21.4376C52.8009 20.7122 52.3172 20.625 52.0515 20.6186H51.8099V20.2673H51.8504C52.2811 20.2673 52.701 20.3021 53.1272 20.3021C53.4984 20.3021 53.8722 20.2673 54.2491 20.2673H54.2889V20.6186H54.1131C53.7368 20.6294 53.3504 20.6622 53.3398 21.7369V25.8837C53.3398 26.2021 53.3492 26.5206 53.3935 26.7967L53.4024 26.8434H53.355V26.8435ZM53.0085 26.7632H53.3102C53.2691 26.4896 53.2621 26.1863 53.2621 25.8837V21.7369C53.2621 20.6432 53.7206 20.5396 54.1133 20.5396H54.2094V20.3462C53.8502 20.3488 53.4898 20.3816 53.1275 20.3816C52.7101 20.3816 52.3041 20.3488 51.8911 20.3462L51.8905 20.5396H52.0518C52.3319 20.5396 52.8853 20.6647 52.8853 21.4375L52.8726 24.881L52.8543 24.9L52.8234 24.9284L48.7678 20.3462C48.4972 20.3462 48.2328 20.3816 47.9551 20.3816C47.6206 20.3816 47.2785 20.3488 46.9478 20.3462L46.9459 20.5396H47.0268C47.4549 20.5396 47.8944 20.8662 47.8944 21.3995V25.2373C47.8944 25.9658 47.6914 26.4321 47.0357 26.4346L46.9478 26.4321V26.6286C47.343 26.6248 47.749 26.5919 48.148 26.5919C48.5287 26.5919 48.9075 26.6248 49.2844 26.6286V26.4346H49.1693C48.4515 26.4321 48.2732 26.12 48.2725 25.3276V21.4702L53.0085 26.7632ZM52.827 24.8708L52.856 24.8443L52.827 24.8708ZM52.8061 24.8532V24.8501L52.7985 24.8437L52.8061 24.8532ZM55.6152 20.7614C54.9303 20.7614 54.9044 20.9257 54.7678 21.5903H54.494C54.53 21.3357 54.5756 21.0811 54.6034 20.8157C54.64 20.5604 54.6577 20.3064 54.6577 20.0423H54.8772C54.9505 20.3159 55.1782 20.3064 55.4255 20.3064H60.1299C60.3764 20.3064 60.6041 20.2976 60.6231 20.0234L60.8406 20.0601C60.8052 20.3064 60.7685 20.5523 60.7407 20.7986C60.7242 21.0445 60.7242 21.2908 60.7242 21.536L60.4498 21.6377C60.4308 21.301 60.3853 20.7614 59.775 20.7614H58.2794V25.6101C58.2794 26.3127 58.5988 26.393 59.0351 26.393H59.209V26.6679C58.8536 26.6679 58.2143 26.6318 57.7229 26.6318C57.176 26.6318 56.5366 26.6679 56.1805 26.6679V26.393H56.3544C56.8572 26.393 57.1114 26.3481 57.1114 25.6291V20.7614H55.6152Z" fill="white"/>
<path d="M59.2107 26.7065C58.8514 26.7065 58.2133 26.6699 57.7232 26.6699C57.1769 26.6699 56.5388 26.7065 56.1808 26.7065H56.1429V26.3539H56.3548C56.8575 26.3419 57.0598 26.3356 57.0712 25.6292V20.8013H55.6155V20.721H57.1504V25.6292C57.1504 26.3602 56.8557 26.4341 56.3548 26.4348H56.2207V26.6268C56.5806 26.625 57.194 26.5921 57.7233 26.5921C58.1989 26.5921 58.8085 26.625 59.169 26.6268V26.4348H59.0355C58.5947 26.4341 58.24 26.3261 58.24 25.6102V20.721H59.7754C60.3876 20.7236 60.4672 21.2436 60.4875 21.5816L60.6842 21.5089C60.6842 21.2714 60.6854 21.0332 60.7019 20.7931C60.7284 20.5586 60.7619 20.3261 60.7961 20.0936L60.6569 20.0702C60.6146 20.3356 60.3584 20.3489 60.1289 20.3464H55.3783C55.164 20.3464 54.9293 20.3362 54.8478 20.0817H54.6973C54.6963 20.329 54.6783 20.576 54.6434 20.8209C54.6169 21.0711 54.5751 21.3119 54.541 21.5526H54.7365C54.8566 20.9175 54.935 20.7116 55.6154 20.7211V20.8013C54.9413 20.8133 54.9553 20.9271 54.8066 21.6006L54.7997 21.6316H54.4487L54.4538 21.5842C54.4905 21.3289 54.5367 21.0749 54.5638 20.8095C54.6018 20.5568 54.6195 20.304 54.6195 20.0424V20.0026H54.9085L54.9148 20.0311C54.9774 20.2611 55.1463 20.2623 55.3783 20.2661H60.1289C60.3831 20.2623 60.5677 20.2585 60.5835 20.0203L60.5873 19.9773L60.6284 19.9861L60.8858 20.0266L60.8801 20.0664C60.8434 20.3103 60.8074 20.5568 60.7808 20.8013C60.7625 21.0439 60.7625 21.2903 60.7625 21.5361V21.5645L60.7372 21.5746L60.4141 21.6921L60.4116 21.639C60.3875 21.2966 60.3515 20.8012 59.7753 20.8012H58.3196V25.6101C58.3278 26.2976 58.6009 26.345 59.0354 26.3538H59.2491V26.7064L59.2107 26.7065ZM61.1325 26.3931H61.2609C61.5885 26.3931 61.9356 26.3489 61.9356 25.8743V21.1001C61.9356 20.6249 61.5885 20.5801 61.2609 20.5801H61.1325V20.3065C61.6878 20.3065 62.6377 20.3426 63.4021 20.3426C64.1699 20.3426 65.1166 20.3065 65.7363 20.3065C65.7212 20.6977 65.7294 21.3004 65.7565 21.7004L65.4814 21.7737C65.4378 21.1817 65.3284 20.7085 64.3703 20.7085H63.1037V23.0949H64.1877C64.7346 23.0949 64.8541 22.7859 64.9079 22.2925H65.1811C65.1634 22.6495 65.1539 23.0046 65.1539 23.3597C65.1539 23.7066 65.1634 24.0522 65.1811 24.3985L64.9079 24.4527C64.8541 23.9063 64.8264 23.5511 64.1964 23.5511H63.1037V25.6735C63.1037 26.2667 63.6305 26.2667 64.2149 26.2667C65.3095 26.2667 65.792 26.1928 66.0659 25.1553L66.3214 25.2179C66.2018 25.7019 66.0931 26.184 66.0121 26.668C65.4278 26.668 64.3786 26.632 63.559 26.632C62.7369 26.632 61.6525 26.668 61.1325 26.668V26.3931Z" fill="white"/>
<path d="M66.0112 26.7067C65.4256 26.7067 64.3771 26.6693 63.5582 26.6693C62.7367 26.6693 61.6527 26.7067 61.1323 26.7067H61.0938V26.3541H61.2601C61.5907 26.349 61.8905 26.32 61.895 25.8745V21.1003C61.8906 20.6555 61.5907 20.6258 61.2601 20.6188H61.0938V20.2676H61.1323C61.6888 20.2676 62.6374 20.3023 63.4019 20.3023C64.1689 20.3023 65.1151 20.2676 65.7361 20.2676H65.7772L65.7752 20.308C65.7689 20.4451 65.7664 20.6068 65.7664 20.7787C65.7664 21.094 65.7752 21.4383 65.7936 21.6981L65.7949 21.7309L65.7645 21.7398L65.4439 21.8232L65.4421 21.7765C65.3883 21.1851 65.3093 20.7561 64.3702 20.7472H63.1415L63.1402 23.0541H64.1875C64.7124 23.049 64.8065 22.7805 64.8686 22.2895L64.8718 22.2535H65.2215L65.2208 22.2945C65.2032 22.6496 65.1917 23.0047 65.1917 23.3598C65.1917 23.7048 65.2032 24.0504 65.2208 24.3973L65.2215 24.4296L65.1886 24.4371L64.8718 24.5003L64.8686 24.4573C64.8059 23.9013 64.8015 23.5967 64.1956 23.5899L63.1414 23.5892V25.6736C63.1422 26.2271 63.6201 26.2239 64.2147 26.2271C65.3124 26.2208 65.7526 26.1678 66.0277 25.1441L66.0366 25.1075L66.0751 25.1144L66.3674 25.1895L66.3585 25.2275C66.2409 25.7102 66.1314 26.1917 66.0498 26.6744L66.0423 26.7067H66.0112ZM65.9777 26.627C66.0567 26.1676 66.161 25.7065 66.273 25.2477L66.0928 25.2022C65.8196 26.222 65.2908 26.313 64.2145 26.3061C63.6403 26.3061 63.0648 26.3061 63.0623 25.6735V23.5114H64.1956C64.8323 23.5044 64.8976 23.8886 64.9424 24.4073L65.1398 24.3663C65.1223 24.0311 65.1136 23.6954 65.1139 23.3597C65.1139 23.0166 65.122 22.6755 65.1398 22.3324H64.9424C64.8919 22.8069 64.7432 23.1405 64.1874 23.1342H63.0623V20.6675H64.3702C65.3188 20.6611 65.4762 21.1502 65.5167 21.7233L65.7134 21.6702C65.6976 21.413 65.6867 21.0832 65.6867 20.7787C65.6867 20.6226 65.6906 20.4754 65.6957 20.3465C65.076 20.349 64.1526 20.3819 63.402 20.3819C62.6526 20.3819 61.73 20.349 61.1715 20.3465V20.5398H61.26C61.5851 20.5398 61.9734 20.5967 61.9746 21.1003V25.8745C61.9733 26.3768 61.5851 26.4324 61.26 26.435H61.1715V26.627C61.7034 26.6263 62.757 26.5923 63.5581 26.5923C64.3625 26.5923 65.3895 26.6263 65.9777 26.627V26.627ZM67.5519 21.2721C67.5519 20.6074 67.1877 20.5803 66.9037 20.5803H66.7399V20.3061C67.032 20.3061 67.5967 20.3427 68.1533 20.3427C68.7003 20.3427 69.1386 20.3061 69.6211 20.3061C70.7694 20.3061 71.7921 20.6163 71.7921 21.9116C71.7921 22.7298 71.2451 23.2315 70.5248 23.5152L72.0836 25.8467C72.339 26.2321 72.5206 26.3401 72.9683 26.3931V26.668C72.6673 26.668 72.3751 26.632 72.0747 26.632C71.7921 26.632 71.4992 26.668 71.2177 26.668C70.5158 25.7475 69.9126 24.7631 69.3199 23.7142H68.7199V25.6653C68.7199 26.3679 69.0469 26.3932 69.4661 26.3932H69.6305V26.6681C69.1094 26.6681 68.5828 26.6321 68.0622 26.6321C67.624 26.6321 67.1952 26.6681 66.7399 26.6681V26.3932H66.9037C67.2426 26.3932 67.5519 26.2403 67.5519 25.9023V21.2721ZM68.7198 23.3863H69.1651C70.0776 23.3863 70.5689 23.0401 70.5689 21.9646C70.5689 21.1546 70.0498 20.6346 69.2372 20.6346C68.9633 20.6346 68.847 20.663 68.7197 20.6713V23.3863H68.7198Z" fill="white"/>
<path d="M72.9681 26.7066C72.6626 26.7066 72.3724 26.6699 72.0726 26.6699C71.7944 26.6699 71.5035 26.7066 71.1854 26.6914C70.486 25.7746 69.8864 24.7959 69.2971 23.7546H68.7583V25.6641C68.7677 26.3496 69.0435 26.344 69.4653 26.3541H69.6695V26.7066H69.629C69.1079 26.7066 68.5787 26.67 68.0607 26.67C67.625 26.67 67.1975 26.7066 66.7396 26.7066H66.6997V26.3541H66.9034C67.2322 26.3522 67.5092 26.2094 67.5105 25.9023V21.2722C67.5036 20.6252 67.1868 20.629 66.9034 20.6196H66.6997V20.2664H66.7396C67.0349 20.2664 67.5978 20.3023 68.153 20.3023C68.6974 20.3023 69.1358 20.2664 69.6215 20.2664C70.7705 20.2689 71.8291 20.5861 71.8322 21.9091C71.8322 22.7324 71.2878 23.246 70.5839 23.533L72.1162 25.8252C72.3711 26.2031 72.5298 26.2973 72.9738 26.3541L73.0072 26.3591V26.7066H72.9681V26.7066ZM68.7185 23.6749H69.342L69.3527 23.6952C69.9472 24.7421 70.546 25.7253 71.2176 26.6288C71.4959 26.6288 71.7886 26.5915 72.0726 26.5915C72.3641 26.5915 72.6449 26.6231 72.9288 26.6275V26.4279C72.5007 26.3748 72.3003 26.2472 72.0511 25.8687L70.4644 23.4961L70.5093 23.4777C71.2227 23.1973 71.7507 22.7101 71.7514 21.9089C71.7507 20.6446 70.7679 20.3515 69.6215 20.3464C69.1402 20.3464 68.7026 20.3824 68.153 20.3824C67.6174 20.3824 67.0767 20.3489 66.7782 20.3464V20.5398H66.9034C67.1867 20.5404 67.5901 20.5871 67.5901 21.2721V25.9022C67.5901 26.268 67.2467 26.4348 66.9034 26.4354H66.7782V26.6275C67.2171 26.6262 67.6325 26.5915 68.0607 26.5915C68.5709 26.5915 69.0851 26.6263 69.5899 26.6275V26.4354H69.4652C69.0491 26.4348 68.6786 26.383 68.6786 25.664V23.6749H68.7184H68.7185ZM68.7185 23.4247H68.6786V20.6345L68.7133 20.6314C68.8379 20.622 68.9613 20.596 69.237 20.596C70.068 20.596 70.608 21.1356 70.6092 21.9664C70.6067 23.0544 70.0844 23.424 69.1648 23.4247H68.7185V23.4247ZM69.1648 23.3464C70.0678 23.3388 70.522 23.0255 70.5315 21.9664C70.5264 21.1703 70.0313 20.6762 69.2369 20.6731C68.9903 20.6731 68.8746 20.6958 68.7582 20.706V23.3464H69.1648ZM79.1598 24.8716L79.1763 24.854V21.437C79.1763 20.6889 78.6571 20.5802 78.3839 20.5802H78.1841V20.3065C78.6122 20.3065 79.0309 20.3426 79.4603 20.3426C79.8346 20.3426 80.2072 20.3065 80.5834 20.3065V20.5802H80.4462C80.063 20.5802 79.6342 20.6528 79.6342 21.7371V25.8845C79.6342 26.203 79.6431 26.5214 79.6879 26.8039H79.3421L74.6459 21.5729V25.3279C74.6459 26.1209 74.8008 26.3932 75.5028 26.3932H75.6578V26.668C75.2663 26.668 74.8736 26.632 74.4821 26.632C74.0703 26.632 73.6511 26.668 73.2413 26.668V26.3932H73.3678C73.9977 26.3932 74.1893 25.966 74.1893 25.2375V21.3991C74.1893 20.8892 73.7699 20.5803 73.3603 20.5803H73.2413V20.3067C73.5867 20.3067 73.944 20.3426 74.2898 20.3426C74.5618 20.3426 74.8274 20.3067 75.1012 20.3067L79.1598 24.8716Z" fill="white"/>
<path d="M79.6885 26.843L79.3129 26.8303L74.6845 21.6759V25.3273C74.6952 26.1202 74.8154 26.3451 75.5034 26.354H75.6963V26.7066H75.6564C75.2619 26.7066 74.871 26.6692 74.4802 26.6692C74.073 26.6692 73.6517 26.7066 73.2413 26.7066H73.2002V26.354H73.3678C73.9698 26.3515 74.1425 25.9642 74.1481 25.235V21.3991C74.1475 20.9138 73.7498 20.6194 73.3603 20.6187H73.2002V20.2662H73.2413C73.5891 20.2662 73.9458 20.3022 74.2898 20.3022C74.5579 20.3022 74.8223 20.2662 75.1284 20.2788L79.1371 24.7889V21.4363C79.1345 20.7122 78.6489 20.6225 78.384 20.6188H78.1429V20.2662H78.1829C78.6141 20.2662 79.034 20.3022 79.4602 20.3022C79.8321 20.3022 80.2059 20.2662 80.5814 20.2662H80.6212V20.6188H80.4461C80.0698 20.6289 79.6821 20.6623 79.6726 21.7372V25.8839C79.6726 26.2023 79.6809 26.5182 79.7271 26.7988L79.7321 26.843H79.6885ZM79.342 26.7634H79.6417C79.6018 26.4898 79.593 26.1865 79.593 25.8839V21.7371C79.5936 20.6433 80.0553 20.5423 80.4461 20.5391H80.5415V20.3464C80.1836 20.3489 79.8226 20.3818 79.4602 20.3818C79.0416 20.3818 78.6348 20.3489 78.2219 20.3464V20.5391H78.3839C78.6646 20.5423 79.2174 20.6649 79.2174 21.4363L79.2048 24.8811L79.187 24.9001L79.1593 24.9291L75.1006 20.3465C74.8299 20.3465 74.5655 20.3819 74.2899 20.3819C73.9522 20.3819 73.6113 20.349 73.2793 20.3465V20.5392H73.3602C73.7884 20.5423 74.2279 20.8652 74.2279 21.3991V25.235C74.2279 25.9666 74.0217 26.4323 73.3678 26.4348L73.2793 26.4342V26.6269C73.6733 26.625 74.0799 26.5921 74.4802 26.5921C74.8629 26.5921 75.2417 26.625 75.6185 26.6269V26.4348H75.5034C74.7851 26.4342 74.6055 26.1202 74.6042 25.3272V21.4717L79.342 26.7634ZM79.1598 24.871L79.1875 24.8451L79.1598 24.871ZM79.1371 24.854V24.8507L79.13 24.8438L79.1371 24.854ZM82.05 25.3645C81.9577 25.6734 81.8477 25.9123 81.8477 26.0747C81.8477 26.3489 82.2315 26.3931 82.5314 26.3931H82.6331V26.668C82.2677 26.6483 81.8951 26.6319 81.5277 26.6319C81.1995 26.6319 80.8732 26.6484 80.5444 26.668V26.3931H80.5993C80.9547 26.3931 81.2565 26.1839 81.3911 25.8004L82.8519 21.6189C82.9696 21.2815 83.1352 20.8259 83.1904 20.4879C83.4806 20.3887 83.8461 20.2068 84.0188 20.0968C84.0472 20.0874 84.063 20.0779 84.0915 20.0779C84.1187 20.0779 84.1364 20.0779 84.1566 20.1063C84.1832 20.1783 84.2097 20.2611 84.2389 20.3338L85.9165 25.1004C86.0259 25.4188 86.134 25.7556 86.2524 26.0298C86.3624 26.2851 86.5546 26.3931 86.8563 26.3931H86.91V26.668C86.4997 26.6484 86.0887 26.632 85.6523 26.632C85.2052 26.632 84.7479 26.6484 84.2831 26.668V26.3931H84.3843C84.5931 26.3931 84.9497 26.3577 84.9497 26.1296C84.9497 26.0115 84.8675 25.7657 84.7657 25.4732L84.4109 24.4161H82.3411L82.05 25.3645ZM83.3806 21.327H83.3622L82.5142 23.9062H84.2185L83.3806 21.327Z" fill="white"/>
<path d="M86.9073 26.7064C86.4969 26.6881 86.0864 26.6691 85.652 26.6691C85.2049 26.6691 84.7508 26.6881 84.2841 26.7064L84.243 26.7089V26.3526H84.3834C84.5946 26.3526 84.9082 26.3046 84.9082 26.1296C84.9108 26.0259 84.8286 25.7757 84.728 25.4858L84.3808 24.4552H82.3692L82.0859 25.3757C81.9935 25.6866 81.8843 25.9273 81.8848 26.0758C81.8879 26.2983 82.2288 26.3526 82.5311 26.3526H82.6715V26.7089L82.6304 26.7064C82.2655 26.6881 81.8931 26.6691 81.5294 26.6691C81.2025 26.6691 80.8737 26.6881 80.5468 26.7064L80.5044 26.7089V26.3526H80.5986C80.9382 26.3513 81.2215 26.1587 81.3531 25.7878L82.8133 21.6056C82.9328 21.2676 83.0972 20.8133 83.1762 20.45C83.4621 20.3533 83.8282 20.1701 84.004 20.0589C84.0293 20.0507 84.0547 20.038 84.092 20.038C84.1141 20.0374 84.1634 20.0431 84.1926 20.0912C84.2185 20.1663 84.2469 20.2472 84.2747 20.3212L85.9544 25.0872C86.062 25.4069 86.1707 25.7437 86.2896 26.0128C86.3952 26.2561 86.5628 26.3514 86.8562 26.3527H86.9492V26.7091L86.9073 26.7064ZM84.3226 26.6249C84.7742 26.6091 85.2163 26.5914 85.652 26.5914C86.0756 26.5914 86.4721 26.6091 86.8686 26.6249V26.4346H86.856C86.5437 26.4365 86.3279 26.314 86.216 26.0455C86.0971 25.7688 85.9858 25.4307 85.879 25.1116L84.2 20.3463C84.1722 20.2736 84.1456 20.1909 84.1215 20.1264C84.114 20.1176 84.1158 20.1176 84.1083 20.1176H84.0918C84.0728 20.1176 84.0621 20.1233 84.0386 20.1296C83.8629 20.2439 83.4968 20.4228 83.2266 20.4942C83.1704 20.8391 83.0066 21.2941 82.8878 21.6315L81.4282 25.8142C81.2891 26.2098 80.9697 26.4353 80.5986 26.4346H80.584V26.6249C80.8964 26.6091 81.2125 26.5914 81.5294 26.5914C81.8816 26.5914 82.2421 26.6091 82.5899 26.6249V26.4346H82.5311C82.2346 26.4309 81.8196 26.3974 81.8083 26.0758C81.8089 25.8938 81.9209 25.6607 82.0099 25.353L82.0498 25.3649L82.0099 25.3517L82.3103 24.3774H84.4365L84.8026 25.4604C84.9051 25.753 84.9879 25.9956 84.9879 26.1295C84.9753 26.4094 84.5901 26.429 84.3833 26.4347H84.3226V26.6249H84.3226ZM82.4584 23.9452L83.3317 21.2871H83.3811V21.3269L83.371 21.3288L83.3811 21.3269V21.2871H83.4083L84.2739 23.9452H82.4584ZM82.5678 23.8662H84.1639L83.3702 21.4242L82.5678 23.8662ZM83.3412 21.3383L83.362 21.3313L83.3412 21.3383ZM87.3108 20.7614C86.6266 20.7614 86.5994 20.9257 86.462 21.5903H86.1882C86.2242 21.3357 86.2705 21.0811 86.299 20.8157C86.3355 20.5604 86.3521 20.3064 86.3521 20.0423H86.5721C86.6448 20.3159 86.8738 20.3064 87.1186 20.3064H91.8254C92.0702 20.3064 92.2979 20.2976 92.3169 20.0234L92.535 20.0601C92.5001 20.3064 92.4642 20.5523 92.4363 20.7986C92.4167 21.0445 92.4167 21.2908 92.4167 21.536L92.1435 21.6377C92.1264 21.301 92.0809 20.7614 91.4694 20.7614H89.9738V25.6101C89.9738 26.3127 90.2939 26.393 90.7302 26.393H90.9034V26.6679C90.548 26.6679 89.9106 26.6318 89.4172 26.6318C88.8709 26.6318 88.2315 26.6679 87.8762 26.6679V26.393H88.0488C88.5515 26.393 88.807 26.3481 88.807 25.6291V20.7614H87.3108Z" fill="white"/>
<path d="M90.9035 26.7064C90.5456 26.7064 89.9069 26.6698 89.4174 26.6698C88.8722 26.6698 88.2335 26.7064 87.8762 26.7064H87.8358V26.3539H88.0489C88.5516 26.3419 88.7534 26.3356 88.766 25.6291L88.7647 20.8013H87.3109V20.721H88.845V25.6291C88.845 26.3601 88.5497 26.4322 88.0489 26.4341H87.9149V26.6287C88.2759 26.6248 88.8881 26.592 89.4174 26.592C89.8936 26.592 90.5032 26.6249 90.8636 26.6287V26.4341H90.729C90.2906 26.4322 89.9353 26.3266 89.9341 25.6101V20.721H91.4695C92.0816 20.7235 92.1619 21.2435 92.1791 21.5815L92.3783 21.5089C92.3783 21.2713 92.3789 21.0331 92.3966 20.7943C92.4218 20.5599 92.4559 20.3261 92.4896 20.0935L92.3517 20.0701C92.31 20.3355 92.0526 20.3501 91.8256 20.3462H87.0725C86.8574 20.3488 86.6247 20.3361 86.5418 20.0802H86.3926C86.39 20.333 86.373 20.5782 86.3369 20.8208C86.313 21.0716 86.268 21.313 86.2339 21.5525H86.4293C86.5501 20.9174 86.6292 20.7114 87.3108 20.721V20.8012C86.6348 20.8127 86.65 20.9269 86.5006 21.6005L86.4938 21.6315H86.1421L86.1478 21.5859C86.1857 21.3288 86.2313 21.0747 86.2578 20.8113C86.2951 20.5566 86.3129 20.3039 86.3129 20.0423V20.0025H86.6011L86.6088 20.0309C86.6727 20.2609 86.8389 20.2622 87.0723 20.266L87.1184 20.2672H91.8254C92.0771 20.2623 92.2611 20.2584 92.2769 20.0209L92.2795 19.9773L92.3225 19.9862L92.5811 20.0266L92.5742 20.0664C92.5369 20.3103 92.5021 20.5568 92.4743 20.8013C92.4559 21.0439 92.4559 21.291 92.4559 21.5361V21.5645L92.4301 21.5746L92.1069 21.6922L92.1051 21.639C92.0816 21.2966 92.0456 20.8012 91.4695 20.8012H90.0131V25.6101C90.0226 26.2976 90.2951 26.345 90.729 26.3538H90.9427V26.7064L90.9035 26.7064ZM92.8719 26.393H92.9997C93.3291 26.393 93.6737 26.3488 93.6737 25.8743V21.1001C93.6737 20.6249 93.3291 20.5801 92.9997 20.5801H92.8719V20.3065C93.228 20.3065 93.7743 20.3425 94.2201 20.3425C94.678 20.3425 95.225 20.3065 95.6537 20.3065V20.5801H95.526C95.1978 20.5801 94.85 20.6249 94.85 21.1001V25.8743C94.85 26.3488 95.1978 26.393 95.526 26.393H95.6537V26.6679C95.2155 26.6679 94.6678 26.6319 94.2132 26.6319C93.7655 26.6319 93.228 26.6679 92.8719 26.6679V26.393Z" fill="white"/>
<path d="M95.6542 26.7066C95.2135 26.7066 94.6676 26.6693 94.213 26.6693C93.7671 26.6693 93.2284 26.7066 92.8723 26.7066H92.8325V26.354H93.0001C93.3295 26.349 93.6319 26.3206 93.6331 25.8745V21.1002C93.6319 20.6554 93.3295 20.625 93.0001 20.6188H92.8325V20.2675H92.8723C93.2284 20.2675 93.776 20.3023 94.2206 20.3023C94.6753 20.3023 95.2223 20.2675 95.6542 20.2675H95.6928V20.6188H95.5264C95.1932 20.6251 94.8941 20.6554 94.8896 21.1002V25.8745C94.8941 26.3206 95.1932 26.349 95.5264 26.354H95.6928V26.7066H95.6542ZM95.6131 26.627V26.4342H95.5264C95.1995 26.4342 94.8125 26.3768 94.8125 25.8745V21.1002C94.8125 20.5967 95.1995 20.5398 95.5264 20.5398H95.6131V20.3464C95.192 20.349 94.6652 20.3818 94.2206 20.3818C93.7886 20.3818 93.2656 20.349 92.9122 20.3464V20.5398H93.0002C93.3245 20.5398 93.7129 20.5967 93.7141 21.1002V25.8745C93.7128 26.3767 93.3245 26.4342 93.0002 26.4342H92.9122V26.627C93.2639 26.6231 93.7799 26.5922 94.213 26.5922C94.6551 26.5922 95.1831 26.6251 95.6131 26.627H95.6131ZM99.2907 20.1702C101.235 20.1702 102.784 21.3745 102.784 23.3148C102.784 25.4113 101.28 26.8045 99.3382 26.8045C97.4031 26.8045 95.9271 25.4921 95.9271 23.5328C95.9271 21.6379 97.3942 20.1702 99.2907 20.1702ZM99.4286 26.4033C101.198 26.4033 101.506 24.8439 101.506 23.5151C101.506 22.1832 100.788 20.5708 99.2731 20.5708C97.6769 20.5708 97.2033 21.9924 97.2033 23.2125C97.2033 24.8439 97.9508 26.4033 99.4286 26.4033Z" fill="white"/>
<path d="M95.8862 23.5328C95.8901 21.6158 97.3749 20.1329 99.2904 20.1304V20.2087C97.416 20.2087 95.9653 21.6575 95.9634 23.5328C95.9679 25.47 97.423 26.7627 99.3379 26.7634C101.26 26.7627 102.743 25.3891 102.746 23.3129C102.745 21.3972 101.219 20.2112 99.2905 20.2087V20.1304C101.25 20.1316 102.82 21.3479 102.824 23.3129C102.822 25.4314 101.298 26.8392 99.3379 26.843C97.3875 26.8392 95.8901 25.5136 95.8864 23.5328H95.8862V23.5328ZM97.1638 23.2125C97.1663 21.9868 97.6456 20.5297 99.2734 20.5297C100.821 20.5335 101.544 22.1763 101.547 23.5151C101.544 24.8439 101.231 26.4412 99.429 26.4412V26.3641C101.163 26.3616 101.463 24.8439 101.468 23.5151C101.468 22.194 100.756 20.6125 99.2734 20.6106C97.7088 20.6125 97.2459 21.9987 97.2428 23.2125C97.2441 24.8357 97.9846 26.3603 99.429 26.3641V26.4412C97.915 26.4393 97.1663 24.8534 97.1638 23.2125ZM108.93 24.8717L108.948 24.854V21.437C108.948 20.6889 108.427 20.5802 108.153 20.5802H107.956V20.3066C108.383 20.3066 108.803 20.3426 109.23 20.3426C109.605 20.3426 109.979 20.3066 110.353 20.3066V20.5802H110.215C109.833 20.5802 109.404 20.6528 109.404 21.7371V25.8845C109.404 26.203 109.413 26.5214 109.459 26.8039H109.113L104.416 21.5729V25.3279C104.416 26.1209 104.57 26.3932 105.272 26.3932H105.428V26.6681C105.035 26.6681 104.644 26.6321 104.252 26.6321C103.841 26.6321 103.421 26.6681 103.01 26.6681V26.3932H103.139C103.769 26.3932 103.958 25.966 103.958 25.2376V21.3992C103.958 20.8893 103.541 20.5803 103.129 20.5803H103.01V20.3067C103.357 20.3067 103.713 20.3427 104.059 20.3427C104.333 20.3427 104.597 20.3067 104.871 20.3067L108.93 24.8717Z" fill="white"/>
<path d="M109.459 26.843L109.082 26.8297L104.455 21.6758V25.3279C104.465 26.1202 104.586 26.3445 105.27 26.3527H105.468V26.7066H105.428C105.033 26.7066 104.641 26.6699 104.252 26.6699C103.842 26.6699 103.424 26.7066 103.01 26.7066H102.972V26.3527H103.139C103.74 26.3509 103.913 25.9642 103.92 25.2375V21.3991C103.919 20.9139 103.521 20.6194 103.129 20.6188H102.972V20.2675H103.01C103.359 20.2675 103.715 20.3023 104.059 20.3023C104.329 20.3023 104.593 20.2675 104.901 20.2808L108.908 24.789V21.4377C108.905 20.7124 108.42 20.6252 108.153 20.6189H107.913V20.2676H107.954C108.384 20.2676 108.804 20.3024 109.228 20.3024C109.603 20.3024 109.975 20.2676 110.353 20.2676H110.392V20.6189H110.215C109.84 20.6296 109.452 20.6637 109.444 21.7372V25.884C109.444 26.2024 109.451 26.5202 109.495 26.7988L109.503 26.843H109.459V26.843ZM109.113 26.7634H109.411C109.372 26.4898 109.365 26.1865 109.365 25.8839V21.7371C109.365 20.6415 109.825 20.5423 110.215 20.5391H110.314V20.3464C109.954 20.3489 109.594 20.3818 109.229 20.3818C108.814 20.3818 108.406 20.3489 107.993 20.3464V20.5391H108.153C108.436 20.5423 108.986 20.6668 108.986 21.4376L108.976 24.8811L108.959 24.9001L108.93 24.9291L104.871 20.3465C104.602 20.3465 104.336 20.3819 104.059 20.3819C103.723 20.3819 103.381 20.349 103.049 20.3465V20.5392H103.129C103.558 20.5423 103.998 20.8652 103.998 21.3991V25.2375C103.998 25.9661 103.795 26.4324 103.139 26.4349L103.049 26.4342V26.627C103.445 26.6251 103.851 26.5922 104.252 26.5922C104.632 26.5922 105.009 26.6251 105.388 26.627V26.4349H105.271C104.555 26.4342 104.376 26.1202 104.376 25.3278V21.4705L109.113 26.7634ZM108.93 24.871L108.959 24.8451L108.93 24.871ZM108.908 24.854V24.8507L108.9 24.8438L108.908 24.854ZM111.818 25.3645C111.729 25.6734 111.619 25.9123 111.619 26.0747C111.619 26.3489 112.003 26.3931 112.302 26.3931H112.403V26.668C112.039 26.6483 111.664 26.6319 111.299 26.6319C110.97 26.6319 110.643 26.6484 110.316 26.668V26.3931H110.368C110.725 26.3931 111.027 26.1839 111.162 25.8004L112.623 21.6189C112.741 21.2815 112.906 20.8259 112.959 20.4879C113.251 20.3887 113.615 20.2068 113.79 20.0968C113.816 20.0874 113.835 20.0779 113.862 20.0779C113.89 20.0779 113.907 20.0779 113.925 20.1063C113.953 20.1783 113.981 20.2611 114.009 20.3338L115.686 25.1004C115.795 25.4188 115.904 25.7556 116.024 26.0298C116.133 26.2851 116.326 26.3931 116.625 26.3931H116.681V26.668C116.27 26.6484 115.86 26.632 115.421 26.632C114.975 26.632 114.519 26.6484 114.053 26.668V26.3931H114.155C114.363 26.3931 114.721 26.3577 114.721 26.1296C114.721 26.0115 114.638 25.7657 114.536 25.4732L114.182 24.4161H112.111L111.818 25.3645ZM113.152 21.327H113.133L112.284 23.9062H113.991L113.152 21.327Z" fill="white"/>
<path d="M116.677 26.7066C116.267 26.6902 115.857 26.67 115.421 26.67C114.976 26.67 114.52 26.6902 114.054 26.7066L114.014 26.7092V26.3541H114.152C114.365 26.3541 114.679 26.3048 114.68 26.1298C114.682 26.0261 114.6 25.7778 114.498 25.4859L114.151 24.4554H112.138L111.856 25.3759C111.765 25.6881 111.656 25.9275 111.658 26.0748C111.658 26.2985 112 26.3541 112.302 26.3541H112.441V26.7092L112.4 26.7066C112.035 26.6902 111.662 26.67 111.299 26.67C110.972 26.67 110.645 26.6902 110.316 26.7066L110.276 26.7092V26.3541H110.368C110.708 26.3527 110.992 26.1576 111.125 25.7879L112.585 21.6058C112.701 21.2678 112.866 20.8135 112.946 20.4514C113.233 20.3522 113.599 20.1703 113.776 20.059C113.8 20.0508 113.825 20.04 113.862 20.04C113.886 20.0375 113.933 20.0432 113.962 20.0931C113.989 20.1646 114.016 20.2473 114.046 20.3212L115.723 25.0872C115.832 25.4069 115.942 25.7437 116.06 26.0148C116.167 26.2561 116.333 26.3515 116.624 26.3541H116.719V26.7092L116.677 26.7066ZM114.092 26.6263C114.543 26.6093 114.987 26.5916 115.421 26.5916C115.845 26.5916 116.243 26.6093 116.64 26.6251L116.639 26.4348H116.624C116.315 26.4355 116.1 26.3142 115.986 26.0457C115.866 25.7689 115.758 25.4309 115.649 25.113L113.97 20.3465C113.943 20.2738 113.915 20.1911 113.893 20.1291C113.886 20.1178 113.886 20.1178 113.879 20.1178H113.862C113.843 20.1178 113.833 20.1241 113.811 20.1304C113.633 20.2422 113.268 20.4241 112.998 20.4943C112.941 20.8393 112.776 21.2936 112.658 21.6316L111.198 25.8144C111.059 26.21 110.741 26.4355 110.368 26.4348H110.354V26.6251C110.668 26.6093 110.982 26.5916 111.299 26.5916C111.653 26.5916 112.012 26.6093 112.363 26.6251V26.4348H112.301C112.005 26.431 111.589 26.3989 111.578 26.0747C111.58 25.894 111.693 25.6621 111.781 25.3532L111.818 25.3651L111.781 25.3519L112.081 24.3776H114.208L114.574 25.4605C114.674 25.7538 114.757 25.9958 114.757 26.1297C114.744 26.4096 114.361 26.4291 114.152 26.4348H114.092V26.6263H114.092ZM112.229 23.9449L113.104 21.2873H113.151V21.3271L113.142 21.329L113.151 21.3271V21.2873H113.18L114.042 23.9449H112.229ZM112.339 23.8665H113.934L113.141 21.4257L112.339 23.8665ZM113.113 21.3385L113.132 21.3316L113.113 21.3385ZM118.979 25.7746C118.979 26.1392 119.232 26.2479 119.524 26.2851C119.898 26.3129 120.308 26.3129 120.729 26.2668C121.111 26.2208 121.44 26.0021 121.603 25.7746C121.749 25.5737 121.831 25.3184 121.886 25.1181H122.15C122.05 25.6375 121.923 26.1493 121.813 26.668C121.012 26.668 120.208 26.632 119.406 26.632C118.603 26.632 117.801 26.668 116.999 26.668V26.3931H117.124C117.454 26.3931 117.811 26.349 117.811 25.7835V21.1003C117.811 20.6251 117.454 20.5803 117.124 20.5803H116.999V20.3067C117.481 20.3067 117.956 20.3427 118.438 20.3427C118.905 20.3427 119.36 20.3067 119.826 20.3067V20.5803H119.596C119.251 20.5803 118.979 20.5904 118.979 21.0718V25.7746Z" fill="white"/>
<path d="M121.813 26.7064C121.009 26.7064 120.207 26.6697 119.407 26.6697C118.603 26.6697 117.801 26.7064 116.997 26.7064H116.958V26.3538H117.124C117.455 26.3462 117.767 26.3235 117.771 25.7833V21.0982C117.767 20.6553 117.457 20.625 117.124 20.6186H116.958V20.2674H116.997C117.482 20.2674 117.957 20.3021 118.439 20.3021C118.902 20.3021 119.357 20.2674 119.826 20.2674H119.863V20.6186H119.597C119.243 20.6287 119.023 20.6123 119.016 21.0717V25.7745C119.019 26.1138 119.242 26.2054 119.526 26.2452C119.687 26.2566 119.856 26.2635 120.032 26.2635C120.255 26.2635 120.487 26.2528 120.723 26.2275C121.094 26.184 121.414 25.9697 121.571 25.7524C121.712 25.5578 121.793 25.3076 121.847 25.1085L121.855 25.0783H122.199L122.19 25.1263C122.087 25.6475 121.962 26.1568 121.851 26.6755L121.844 26.7065H121.813V26.7064ZM121.78 26.6268C121.885 26.1327 122.005 25.6492 122.103 25.1564H121.916C121.859 25.3548 121.778 25.5993 121.634 25.7984C121.464 26.0347 121.127 26.2571 120.731 26.3057C120.492 26.3304 120.256 26.343 120.032 26.343C119.855 26.343 119.684 26.3348 119.519 26.3234C119.223 26.2905 118.935 26.1641 118.936 25.7744V21.0716C118.936 20.5655 119.257 20.5396 119.597 20.5396H119.785V20.3462C119.336 20.3488 118.893 20.3822 118.439 20.3822C117.967 20.3822 117.505 20.3488 117.037 20.3462V20.5396H117.124C117.45 20.5396 117.848 20.5964 117.848 21.0981V25.7832C117.848 26.3727 117.452 26.434 117.124 26.434H117.037V26.6267C117.826 26.6261 118.614 26.592 119.406 26.592C120.199 26.592 120.991 26.6261 121.78 26.6268V26.6268ZM122.04 20.0474C122.589 20.0474 123 20.4694 123 21.0103C123 21.5486 122.589 21.9669 122.04 21.9669C121.49 21.9669 121.079 21.5486 121.079 21.0103C121.079 20.4695 121.49 20.0474 122.04 20.0474ZM122.04 21.7881C122.469 21.7881 122.799 21.4216 122.799 21.0103C122.799 20.5964 122.474 20.2268 122.04 20.2268C121.608 20.2268 121.278 20.5965 121.278 21.0103C121.278 21.4216 121.608 21.7881 122.04 21.7881ZM121.562 21.5158V21.4684C121.68 21.4519 121.701 21.4557 121.701 21.3824V20.6723C121.701 20.5725 121.691 20.5384 121.566 20.5434V20.4947H122.057C122.227 20.4947 122.382 20.5749 122.382 20.7493C122.382 20.8921 122.287 20.9976 122.155 21.0387L122.312 21.2585C122.386 21.3584 122.469 21.4519 122.524 21.4847V21.5157H122.337C122.247 21.5157 122.169 21.3268 121.992 21.0734H121.885V21.3925C121.885 21.4557 121.907 21.4519 122.026 21.4683V21.5157H121.562V21.5158ZM121.885 21.0103H121.999C122.122 21.0103 122.181 20.9161 122.181 20.7651C122.181 20.6122 122.091 20.5585 121.992 20.5585H121.885V21.0103Z" fill="white"/>
</svg>
