<svg width="115" height="20" viewBox="0 0 115 20" fill="none" xmlns="http://www.w3.org/2000/svg">
<path fill-rule="evenodd" clip-rule="evenodd" d="M0 0.307722H5.00045C5.93293 0.307722 6.86479 0.395457 7.71182 0.527066C12.1185 1.18447 15.5933 3.59538 15.5933 9.99396C15.5933 16.3493 12.1185 18.8028 7.71182 19.4164C6.86479 19.548 5.93232 19.5912 5.00045 19.5912H0V0.307722ZM113.39 3.24379C114.068 3.24379 114.576 2.71799 114.576 1.92898C114.576 1.1406 114.068 0.5703 113.39 0.5703C112.712 0.5703 112.203 1.13997 112.203 1.92898C112.203 2.71799 112.712 3.24379 113.39 3.24379ZM113.39 0.263853C113.602 0.263769 113.811 0.30678 114.006 0.390431C114.202 0.474083 114.379 0.596733 114.529 0.751371C114.678 0.906009 114.797 1.0896 114.878 1.29166C114.958 1.49372 115 1.71029 115 1.92898C115 2.14773 114.959 2.36436 114.878 2.56649C114.797 2.76863 114.678 2.9523 114.529 3.107C114.379 3.26171 114.202 3.38442 114.006 3.46811C113.811 3.5518 113.602 3.59483 113.39 3.59475C113.179 3.59475 112.969 3.55167 112.774 3.46797C112.579 3.38428 112.401 3.2616 112.252 3.10695C112.102 2.9523 111.983 2.7687 111.903 2.56664C111.822 2.36458 111.78 2.14801 111.78 1.9293C111.78 1.71059 111.822 1.49402 111.903 1.29196C111.983 1.0899 112.102 0.906299 112.252 0.751647C112.401 0.596996 112.579 0.474322 112.774 0.390626C112.969 0.306929 113.179 0.263853 113.39 0.263853V0.263853ZM113.39 2.1922L113.305 2.06059H113.093V2.8496H112.753V0.965126H113.474C113.897 0.965126 114.152 1.14061 114.152 1.53479C114.152 1.84125 113.94 2.01672 113.643 2.06059L114.152 2.8496H113.771L113.39 2.1922ZM113.39 1.22834H113.432C113.601 1.22834 113.771 1.27221 113.771 1.49156C113.771 1.75478 113.602 1.79801 113.432 1.79801H113.094V1.22834H113.39ZM101.61 8.50304C103.009 8.32756 104.152 7.71402 104.152 5.87342C104.152 4.12055 103.009 3.63798 101.61 3.41927H99.0674V8.59141H100.254C100.72 8.59141 101.186 8.54691 101.61 8.50304V8.50304ZM101.61 0.351592C104.915 0.4832 107.966 1.18447 107.966 5.56696C107.966 7.84627 106.568 9.73074 104.237 10.0372C105.212 10.1688 105.806 11.1772 106.144 12.0539L109.069 19.5912H105L102.797 13.5436C102.459 12.6668 102.162 12.1404 101.611 11.8339C101.315 11.6591 100.849 11.5707 100.254 11.5707H99.068V19.5912H95.4242V0.307722H99.3643C100.084 0.307722 100.89 0.307723 101.61 0.351592ZM67.6693 6.09276C68.0928 7.2321 68.3043 8.50368 68.3043 9.95009C68.3043 11.3088 68.0928 12.6236 67.6693 13.8068C66.3557 17.5306 63.1778 19.9421 58.8142 19.9421C52.9667 19.9421 49.2374 15.8222 49.2374 9.94945C49.2374 4.03217 53.0509 0.000635439 58.8142 0.000635439C63.1778 0.000635439 66.3557 2.36768 67.6693 6.09276V6.09276ZM67.6693 2.01672L74.1106 19.5912H75.466L82.627 0.307722H78.8129L75.0001 10.4753L70.9327 0.307722H67.0344L67.6693 2.01672V2.01672ZM83.5595 0.307722H94.4062V3.41927H87.2452V8.15272H93.77V11.132H87.2458V16.5674H94.4493V19.5912H83.5601V0.307722H83.5595V0.307722ZM7.71182 3.72636C7.07624 3.50701 6.39825 3.41927 5.72086 3.41927H3.64446V16.5674H5.72086C6.39886 16.5674 7.07686 16.4358 7.71182 16.2171C9.95788 15.3835 11.7798 13.2365 11.7798 9.99332C11.7804 6.75017 9.95788 4.51474 7.71182 3.72636V3.72636ZM17.0341 0.307722H20.7204V19.5912H17.0341V0.307722ZM32.5426 5.43536C31.2714 4.60247 29.9161 3.76959 28.4752 3.59475C27.1617 3.41927 25.7633 3.81346 25.7633 5.74181C25.7633 9.0727 33.8144 7.67015 33.8144 14.1132C33.8144 18.3203 30.5941 20.3802 26.9078 19.9421C24.9162 19.7222 23.7723 19.1086 22.2042 18.0138V14.0687C23.4336 14.7706 25.2549 16.1287 26.6957 16.3919C28.2638 16.6551 29.9585 16.1719 29.9585 14.4197C29.9585 10.6946 21.9504 12.2281 21.9504 5.87278C21.9504 1.57803 25.0859 0 28.3062 0C29.9167 0 31.3145 0.613534 32.5432 1.75287V5.43536H32.5426V5.43536ZM48.3049 17.6628C47.3725 18.8912 45.1694 19.5912 43.6862 19.7228C37.966 20.1176 34.1525 16.8306 34.1525 10.3004C34.1525 3.72636 37.5 -0.130337 43.6862 0.220619C44.915 0.264488 46.9065 0.702544 48.2201 1.84188V5.52373C46.6521 4.516 45.0422 3.81473 43.6862 3.77086C39.9151 3.63925 37.966 6.0934 37.966 10.0378C37.966 13.9829 39.7879 16.1732 43.6862 15.9983C45.2112 15.9551 47.4997 14.6835 48.3049 13.9829V17.6628V17.6628Z" fill="white"/>
</svg>
<svg width="115" height="20" viewBox="0 0 115 20" fill="none" xmlns="http://www.w3.org/2000/svg">
<path fill-rule="evenodd" clip-rule="evenodd" d="M0 0.307722H5.00045C5.93293 0.307722 6.86479 0.395457 7.71182 0.527066C12.1185 1.18447 15.5933 3.59538 15.5933 9.99396C15.5933 16.3493 12.1185 18.8028 7.71182 19.4164C6.86479 19.548 5.93232 19.5912 5.00045 19.5912H0V0.307722ZM113.39 3.24379C114.068 3.24379 114.576 2.71799 114.576 1.92898C114.576 1.1406 114.068 0.5703 113.39 0.5703C112.712 0.5703 112.203 1.13997 112.203 1.92898C112.203 2.71799 112.712 3.24379 113.39 3.24379ZM113.39 0.263853C113.602 0.263769 113.811 0.30678 114.006 0.390431C114.202 0.474083 114.379 0.596733 114.529 0.751371C114.678 0.906009 114.797 1.0896 114.878 1.29166C114.958 1.49372 115 1.71029 115 1.92898C115 2.14773 114.959 2.36436 114.878 2.56649C114.797 2.76863 114.678 2.9523 114.529 3.107C114.379 3.26171 114.202 3.38442 114.006 3.46811C113.811 3.5518 113.602 3.59483 113.39 3.59475C113.179 3.59475 112.969 3.55167 112.774 3.46797C112.579 3.38428 112.401 3.2616 112.252 3.10695C112.102 2.9523 111.983 2.7687 111.903 2.56664C111.822 2.36458 111.78 2.14801 111.78 1.9293C111.78 1.71059 111.822 1.49402 111.903 1.29196C111.983 1.0899 112.102 0.906299 112.252 0.751647C112.401 0.596996 112.579 0.474322 112.774 0.390626C112.969 0.306929 113.179 0.263853 113.39 0.263853V0.263853ZM113.39 2.1922L113.305 2.06059H113.093V2.8496H112.753V0.965126H113.474C113.897 0.965126 114.152 1.14061 114.152 1.53479C114.152 1.84125 113.94 2.01672 113.643 2.06059L114.152 2.8496H113.771L113.39 2.1922ZM113.39 1.22834H113.432C113.601 1.22834 113.771 1.27221 113.771 1.49156C113.771 1.75478 113.602 1.79801 113.432 1.79801H113.094V1.22834H113.39ZM101.61 8.50304C103.009 8.32756 104.152 7.71402 104.152 5.87342C104.152 4.12055 103.009 3.63798 101.61 3.41927H99.0674V8.59141H100.254C100.72 8.59141 101.186 8.54691 101.61 8.50304V8.50304ZM101.61 0.351592C104.915 0.4832 107.966 1.18447 107.966 5.56696C107.966 7.84627 106.568 9.73074 104.237 10.0372C105.212 10.1688 105.806 11.1772 106.144 12.0539L109.069 19.5912H105L102.797 13.5436C102.459 12.6668 102.162 12.1404 101.611 11.8339C101.315 11.6591 100.849 11.5707 100.254 11.5707H99.068V19.5912H95.4242V0.307722H99.3643C100.084 0.307722 100.89 0.307723 101.61 0.351592ZM67.6693 6.09276C68.0928 7.2321 68.3043 8.50368 68.3043 9.95009C68.3043 11.3088 68.0928 12.6236 67.6693 13.8068C66.3557 17.5306 63.1778 19.9421 58.8142 19.9421C52.9667 19.9421 49.2374 15.8222 49.2374 9.94945C49.2374 4.03217 53.0509 0.000635439 58.8142 0.000635439C63.1778 0.000635439 66.3557 2.36768 67.6693 6.09276V6.09276ZM67.6693 2.01672L74.1106 19.5912H75.466L82.627 0.307722H78.8129L75.0001 10.4753L70.9327 0.307722H67.0344L67.6693 2.01672V2.01672ZM83.5595 0.307722H94.4062V3.41927H87.2452V8.15272H93.77V11.132H87.2458V16.5674H94.4493V19.5912H83.5601V0.307722H83.5595V0.307722ZM7.71182 3.72636C7.07624 3.50701 6.39825 3.41927 5.72086 3.41927H3.64446V16.5674H5.72086C6.39886 16.5674 7.07686 16.4358 7.71182 16.2171C9.95788 15.3835 11.7798 13.2365 11.7798 9.99332C11.7804 6.75017 9.95788 4.51474 7.71182 3.72636V3.72636ZM17.0341 0.307722H20.7204V19.5912H17.0341V0.307722ZM32.5426 5.43536C31.2714 4.60247 29.9161 3.76959 28.4752 3.59475C27.1617 3.41927 25.7633 3.81346 25.7633 5.74181C25.7633 9.0727 33.8144 7.67015 33.8144 14.1132C33.8144 18.3203 30.5941 20.3802 26.9078 19.9421C24.9162 19.7222 23.7723 19.1086 22.2042 18.0138V14.0687C23.4336 14.7706 25.2549 16.1287 26.6957 16.3919C28.2638 16.6551 29.9585 16.1719 29.9585 14.4197C29.9585 10.6946 21.9504 12.2281 21.9504 5.87278C21.9504 1.57803 25.0859 0 28.3062 0C29.9167 0 31.3145 0.613534 32.5432 1.75287V5.43536H32.5426V5.43536ZM48.3049 17.6628C47.3725 18.8912 45.1694 19.5912 43.6862 19.7228C37.966 20.1176 34.1525 16.8306 34.1525 10.3004C34.1525 3.72636 37.5 -0.130337 43.6862 0.220619C44.915 0.264488 46.9065 0.702544 48.2201 1.84188V5.52373C46.6521 4.516 45.0422 3.81473 43.6862 3.77086C39.9151 3.63925 37.966 6.0934 37.966 10.0378C37.966 13.9829 39.7879 16.1732 43.6862 15.9983C45.2112 15.9551 47.4997 14.6835 48.3049 13.9829V17.6628V17.6628Z" fill="white"/>
</svg>
