<svg width="65" height="25" viewBox="0 0 65 25" fill="none" xmlns="http://www.w3.org/2000/svg">
<path d="M10.6106 6.00533C11.3354 5.73898 12.1085 5.59692 12.9106 5.59692C16.4218 5.59692 19.3531 8.34566 20.0232 12L25 10.8813C23.8597 4.67357 18.8796 0 12.9106 0C11.5416 0 10.2305 0.245043 9 0.699615L10.6106 6.00533Z" fill="white" fill-opacity="0.6"/>
<path d="M4.42276 22L8 18.2946C6.40479 16.9988 5.39837 15.1068 5.39837 12.9984C5.39837 10.8931 6.40479 9.00122 8 7.70856L4.42276 4C1.7116 6.20254 0 9.41851 0 12.9984C0 16.5815 1.7116 19.7975 4.42276 22" fill="white"/>
<path d="M20.0232 14C19.3499 17.3485 16.4218 19.8665 12.9138 19.8665C12.1085 19.8665 11.3322 19.7362 10.6106 19.4886L9 24.3616C10.2305 24.7752 11.5448 25 12.9138 25C18.8764 25 23.8532 20.7199 25 15.0326L20.0232 14Z" fill="white" fill-opacity="0.4"/>
<path d="M30.1232 18.4178C29.9623 18.1578 29.7477 17.7425 29.6151 17.435C28.8419 15.6344 28.8072 13.7703 29.4573 11.9824C30.1737 10.0201 31.5434 8.52061 33.3139 7.75343C35.5389 6.79288 37.9974 6.97992 40.1308 8.25115C41.4848 9.031 42.4442 10.2356 43.1732 11.9412C43.2647 12.1599 43.3468 12.3913 43.4288 12.5911L30.1232 18.4178ZM34.5668 10.6478C32.9857 11.3293 32.1714 12.8193 32.3419 14.5629L39.0326 11.6685C37.8806 10.3117 36.3847 9.86157 34.5668 10.6478V10.6478ZM39.8657 16.9436C39.8626 16.9436 39.8626 16.9468 39.8626 16.9468L39.7237 16.8517C39.3229 17.5016 38.7012 18.031 37.9153 18.3734C36.4194 19.0264 35.0339 18.8584 34.0366 17.9803L33.9451 18.1198C33.9451 18.1198 33.9451 18.1166 33.942 18.1166L32.244 20.6685C32.6669 20.9634 33.1182 21.2106 33.5916 21.4104C35.4663 22.1934 37.3851 22.1553 39.2756 21.3311C40.6421 20.7351 41.7151 19.8285 42.4473 18.6777L39.8657 16.9436ZM48.0776 4V18.1832L50.2742 19.0771L49.0276 22L46.6038 20.9856C46.0609 20.7478 45.6885 20.3864 45.4108 19.9775C45.1425 19.5622 44.9437 18.9884 44.9437 18.2212V4H48.0776ZM53.7647 14.5724C53.7647 13.3646 54.2981 12.2804 55.1375 11.5449L52.8842 9.02149C51.3567 10.3783 50.3941 12.3596 50.3941 14.566C50.3909 16.7756 51.3535 18.7601 52.8779 20.1169L55.1281 17.5935C54.2917 16.8549 53.7647 15.777 53.7647 14.5724V14.5724ZM57.7665 18.5953C57.3246 18.5953 56.8954 18.5192 56.4978 18.3861L55.4216 21.5974C56.1569 21.8447 56.9428 21.981 57.7633 21.981C61.3296 21.9842 64.3057 19.4417 64.9968 16.0655L61.6894 15.3871C61.3138 17.2226 59.7011 18.5985 57.7665 18.5953V18.5953ZM57.7759 7.16379C56.9585 7.16379 56.1727 7.29694 55.4374 7.54104L56.5041 10.7555C56.9049 10.6224 57.331 10.5495 57.7728 10.5495C59.7106 10.5527 61.3264 11.9348 61.6925 13.7735L65 13.1014C64.3215 9.71891 61.3454 7.16696 57.7759 7.16379V7.16379Z" fill="white"/>
</svg>
