<svg width="96" height="42" viewBox="0 0 96 42" fill="none" xmlns="http://www.w3.org/2000/svg">
<path d="M26.3539 0H16.4045C12.0082 0.208917 8.41465 1.98859 7.37705 5.65855C6.83601 7.57252 6.53826 9.67456 6.11519 11.6586C3.96441 21.7468 2.0573 32.1131 0 42H77.4599C83.4483 42 87.5603 40.7281 88.6712 35.9509C89.1874 33.7318 89.6818 31.2185 90.1758 28.7805C92.101 19.2745 94.0279 9.76908 96 0H26.3539Z" fill="white" fill-opacity="0.5"/>
<path d="M25.2826 15.4298C25.7023 15.1428 26.243 13.8358 25.6253 13.2917C25.4297 13.1194 25.1026 13.0694 24.6461 13.146C24.2228 13.217 23.9792 13.3598 23.8139 13.5834C23.5481 13.9428 23.3042 15.0272 23.7159 15.43C24.1171 15.8221 25.0155 15.6123 25.2826 15.4298V15.4298ZM19.3096 13.2917C19.0088 15.2285 18.6701 17.1275 18.3303 19.0257C16.1493 19.0485 13.9224 19.1325 11.8188 18.977C12.2161 17.12 12.5011 15.1513 12.8959 13.2917H10.5459C9.70465 18.0287 8.9393 22.8413 8 27.4809H10.3991C10.7753 25.1011 11.1274 22.6968 11.623 20.4349C13.6685 20.3849 16.12 20.2977 18.0857 20.4836C17.6804 22.8351 17.1907 25.1023 16.8128 27.4809H19.2119C19.9829 22.674 20.7948 17.9081 21.7579 13.2917H19.3096V13.2917ZM53.2385 17.3736C51.3718 16.6253 49.9043 17.8898 49.2239 19.0743C49.3782 18.5474 49.4417 17.9302 49.5668 17.3736H47.7063C47.2514 20.8745 46.5811 24.1613 45.9439 27.4809H48.0492C48.3443 25.5106 48.4716 22.8543 49.1262 20.9694C49.6493 19.4632 51.0184 18.18 52.994 18.88C53.0214 18.3243 53.1816 17.9002 53.2385 17.3736V17.3736ZM54.4133 25.1C54.2192 24.6023 54.1692 23.7808 54.2177 23.156C54.3264 21.7521 54.842 20.0426 55.6375 19.2687C56.7354 18.2006 58.9027 18.3774 60.6315 18.9772C60.685 18.3989 60.8021 17.883 60.8764 17.3251C58.0412 16.8655 55.3509 17.1515 53.9243 18.6372C52.5277 20.0915 51.6125 23.4342 52.2594 25.5374C53.0168 27.9985 56.4132 28.1323 59.1628 27.1896C59.2845 26.6949 59.3489 26.1434 59.4565 25.6347C57.9538 26.4092 55.0811 26.8119 54.4133 25.1V25.1ZM78.0609 17.4221C76.2002 16.4987 74.651 18.0481 74.0463 18.977C74.2185 18.5004 74.2284 17.8621 74.3889 17.3734H72.5285C72.0268 20.844 71.4223 24.2123 70.7172 27.4808H72.8715C72.885 26.1411 73.1502 25.1502 73.3608 23.8366C73.8109 21.0313 74.4721 17.9551 77.7675 18.8798C77.8765 18.4055 77.9219 17.8674 78.0609 17.4221ZM23.1283 17.3736C23.0713 17.3817 23.0751 17.4504 23.0793 17.5192C22.6154 20.9625 21.9875 24.2432 21.3169 27.4808H23.422C23.9279 24.0143 24.5073 20.6213 25.2335 17.3734L23.1283 17.3736V17.3736ZM41.635 17.1792C40.1138 17.2957 38.8279 17.73 37.9141 18.6857C36.7933 19.8575 35.8857 22.4487 36.1517 24.8085C36.5311 28.1749 40.7542 28.054 44.132 27.2381C44.1896 26.6472 44.3337 26.1421 44.4257 25.5858C43.0343 26.1026 40.6183 26.824 39.1869 25.9262C38.1063 25.2479 38.1 23.5311 38.4525 22.0387C40.7227 21.967 43.0822 21.9806 45.3557 22.0387C45.4998 20.9809 45.9125 19.8277 45.5515 18.783C45.0755 17.4038 43.3702 17.0464 41.635 17.1792ZM43.6423 20.8723H38.6971C38.8538 19.744 39.8765 18.5038 41.488 18.4426C43.0047 18.3851 44.0905 18.9953 43.6423 20.8723V20.8723ZM33.6547 17.3736C31.8729 16.7092 29.7013 17.5023 28.7597 18.2566C28.7632 18.2898 28.7373 18.2943 28.7096 18.2968C28.7255 18.2834 28.743 18.27 28.7597 18.2566C28.7596 18.2538 28.7593 18.251 28.7588 18.2483C28.7746 17.924 28.8896 17.6979 28.9056 17.3736H27.0941C26.3392 22.3583 25.444 27.2036 24.4994 32H26.6046C26.9093 30.1321 27.1104 28.1613 27.5349 26.4119C28.0157 28.2519 31.155 27.9004 32.4799 27.1894C35.213 25.7223 37.3212 18.7404 33.6547 17.3736V17.3736ZM31.9902 25.5858C30.8638 26.7698 28.0948 26.7521 27.8775 24.7596C27.783 23.8928 28.1083 22.984 28.2695 22.0872C28.432 21.1794 28.5493 20.3085 28.7097 19.5117C29.8192 18.1672 33.0792 18.0047 33.41 20.2406C33.6969 22.1817 32.9228 24.6053 31.9902 25.5858V25.5858ZM85.8942 13.0002C85.7138 14.5704 85.4726 16.0804 85.1601 17.5192C79.9959 15.8968 76.829 19.6679 76.886 24.3225C76.8973 25.2226 77.0533 26.1153 77.6202 26.7521C78.5981 27.8491 81.3968 28.1119 82.8102 27.1892C83.0836 27.0108 83.3632 26.6858 83.5444 26.4606C83.6807 26.2909 83.8968 25.8466 83.9362 25.9745C83.8617 26.4675 83.7506 26.9245 83.7406 27.4808H85.65C86.0182 22.2415 87.1558 17.7666 88 13H85.8944V13.0002H85.8942ZM81.1943 26.3632C79.7771 26.3934 79.0724 25.5228 79.0399 24.0794C78.9834 21.5515 80.1007 18.743 82.3694 18.4911C83.4256 18.374 84.1903 18.6177 84.9643 18.88C84.2537 21.7196 84.5101 26.2926 81.1943 26.3632V26.3632ZM63.0302 17.3736C62.9266 17.9509 62.7675 18.4734 62.6386 19.0257C63.881 18.7164 67.7494 17.7685 68.1221 19.4143C68.2459 19.9611 68.0324 20.5421 67.8773 20.9694C64.3794 20.6406 61.5282 21.2174 60.7781 23.6906C60.2759 25.3472 60.8344 26.9774 61.9043 27.4325C63.9648 28.3087 66.4711 27.3049 67.3387 25.9262C67.2486 26.4034 67.1633 26.8858 67.1922 27.4809H69.0035C69.0228 25.7591 69.2753 24.3653 69.542 22.8158C69.7694 21.4964 70.1973 20.1902 70.1296 19.0257C69.9737 16.3587 65.5221 17.3021 63.0302 17.3736V17.3736ZM66.4574 25.5372C65.3725 26.5913 62.3271 26.8908 62.6386 24.3709C62.8972 22.2781 65.1932 21.8334 67.6811 22.1355C67.4963 23.2804 67.2842 24.734 66.4574 25.5372V25.5372Z" fill="white"/>
</svg>
