<svg width="35" height="35" viewBox="0 0 35 35" fill="none" xmlns="http://www.w3.org/2000/svg">
<g clip-path="url(#clip0_91_223)">
<path fill-rule="evenodd" clip-rule="evenodd" d="M17.5001 25.0888C18.5549 24.1265 19.397 22.9543 19.9723 21.6475C20.5476 20.3407 20.8435 18.928 20.8409 17.5002C20.8435 16.0723 20.5477 14.6597 19.9724 13.3528C19.397 12.046 18.5549 10.8738 17.5001 9.91153C15.6963 8.26499 13.3035 7.2616 10.6777 7.2616C5.06496 7.2616 0.514648 11.8455 0.514648 17.5002C0.514648 23.1546 5.06496 27.7387 10.6777 27.7387C13.3035 27.7387 15.6965 26.7353 17.5001 25.0888Z" fill="white" fill-opacity="0.6"/>
<path fill-rule="evenodd" clip-rule="evenodd" d="M24.3223 7.2616C21.6965 7.2616 19.3033 8.26499 17.4999 9.91153C17.1321 10.2476 16.7892 10.6099 16.4738 10.9955H18.5253C18.8069 11.3398 19.0659 11.7019 19.3006 12.0797H15.699C15.4822 12.4291 15.2866 12.7911 15.1131 13.1639H19.8857C20.0499 13.5168 20.1939 13.8787 20.3169 14.2479H14.6828C14.5646 14.6036 14.4661 14.9655 14.3877 15.332H20.6121C20.7645 16.0446 20.8412 16.7714 20.8409 17.5002C20.8409 18.6368 20.6564 19.7305 20.3171 20.7522H14.6828C14.8053 21.1215 14.949 21.4835 15.1131 21.8364H19.8857C19.7125 22.2092 19.5171 22.5713 19.3004 22.9206H15.699C15.9335 23.2984 16.1923 23.6605 16.4736 24.0048H18.5253C18.2103 24.3906 17.8676 24.753 17.4999 25.089C19.3033 26.7355 21.6965 27.7389 24.3223 27.7389C29.9348 27.7389 34.4853 23.1548 34.4853 17.5003C34.4853 11.8455 29.9348 7.2616 24.3223 7.2616Z" fill="white"/>
</g>
<defs>
<clipPath id="clip0_91_223">
<rect width="35" height="35" fill="white"/>
</clipPath>
</defs>
</svg>
